<?xml version="1.0" encoding="iso-8859-1"?>
<!-- Uploaded to: SVG Repo, www.svgrepo.com, Generator: SVG Repo Mixer Tools -->
<svg height="800px" width="800px" version="1.1" id="Layer_1" xmlns="http://www.w3.org/2000/svg" xmlns:xlink="http://www.w3.org/1999/xlink" 
	 viewBox="0 0 512 512" xml:space="preserve">
<polygon style="fill:#5EBAE7;" points="448.088,384.119 63.912,312.085 63.912,168.019 448.088,103.99 "/>
<polygon style="fill:#36A9E1;" points="448.088,232.048 448.088,384.119 63.912,312.085 63.912,232.048 "/>
<g>
	<polygon style="fill:#D5C9B3;" points="504.114,392.122 448.088,384.119 448.088,95.985 504.114,87.982 	"/>
	<polygon style="fill:#D5C9B3;" points="63.912,312.085 7.886,304.082 7.886,176.022 63.912,168.019 	"/>
</g>
<g>
	<polygon style="fill:#CBBBA0;" points="63.912,312.085 7.886,307.638 7.886,232.048 63.912,232.048 	"/>
	<polygon style="fill:#CBBBA0;" points="504.114,392.122 448.088,383.228 448.088,232.048 504.114,232.048 	"/>
</g>
<path style="fill:#1D1D1B;" d="M496.227,63.971v17.401L15.773,166.614v-14.362H0v175.599h15.773V313.49l72.267,12.821v49.802
	c0,39.654,32.261,71.916,71.916,71.916s71.916-32.262,71.916-71.916V351.83l264.355,46.902v17.4H512V63.971H496.227z
	 M440.202,107.33v265.443L71.798,307.411V172.693L440.202,107.33z M15.773,182.634l40.252-7.142v129.12l-40.252-7.141V182.634z
	 M216.099,376.114c0,30.957-25.186,56.143-56.143,56.143s-56.143-25.185-56.143-56.143v-47.003l112.286,19.921V376.114z
	 M455.975,375.572V104.532l40.252-7.142v285.323L455.975,375.572z"/>
</svg>